<?xml version="1.0" encoding="UTF-8"?>
<svg id="Camada_1" xmlns="http://www.w3.org/2000/svg" version="1.1" viewBox="0 0 371.1 363.7">
  <!-- Generator: Adobe Illustrator 29.4.0, SVG Export Plug-In . SVG Version: 2.1.0 Build 152)  -->
  <defs>
    <style>
      .st0 {
        fill: #2ecc71;
      }

      .st1 {
        fill: #fefefe;
      }
    </style>
  </defs>
  <path class="st0" d="M86.6,9.9c63.5-4.4,131.3,2.8,195.2-.3,42.2,1.5,73.4,32.5,75.9,74.5-2.8,64.2,3.8,131.6,0,195.4-2.5,41.7-32.8,72-74.5,74.5-64.2-2.8-131.6,3.8-195.4,0-42.1-2.5-72.2-33.2-74.5-75.2-3.5-63.5,2.7-130.1,0-193.9C15.6,43.4,45,12.8,86.6,9.9Z"/>
  <path class="st1" d="M264.7,112.4c13.2-.7,21.4,14.3,13.9,25.2l-95.7,95.9c-28.5,23.3-49.9-27.5-67.7-42.3-2.3-3.7-6.7-7.1-8.3-11.2-6.6-17,15.4-30.2,27.4-16.1l33.7,39.7,87.2-87.2c2.6-2,6.4-3.7,9.6-3.9Z"/>
</svg>