<?xml version="1.0" encoding="UTF-8"?>
<svg id="Camada_1" xmlns="http://www.w3.org/2000/svg" version="1.1" viewBox="0 0 371.1 363.7">
  <!-- Generator: Adobe Illustrator 29.4.0, SVG Export Plug-In . SVG Version: 2.1.0 Build 152)  -->
  <defs>
    <style>
      .st0 {
        fill: #febf48;
      }
    </style>
  </defs>
  <path class="st0" d="M174.5,10.3c137.2-8.5,229.1,139.4,159,258.5-62.9,106.9-216.6,112.9-287.9,11.4C-31.1,170.9,41.9,18.5,174.5,10.3ZM206.7,225.4c.5-.5.8-3,.9-3.9,4.1-44,5.3-88.4,9.7-132.4-3.2-40.9-60.4-40.3-62.8.7,5.2,43.6,4.8,88.9,9.8,132.4.4,3.2.7,3.9,4,4.2,9,.9,25.3.7,34.5,0,1.1,0,3.2-.2,3.9-1ZM182,253.5c-31.9,4.3-27.7,55.5,8.7,50.6,30.6-4,26.1-55.4-8.7-50.6Z"/>
</svg>